<svg id="svg" version="1.1" xmlns="http://www.w3.org/2000/svg" xmlns:xlink="http://www.w3.org/1999/xlink" width="400" height="400" viewBox="0, 0, 400,400"><g id="svgg"><path id="path0" d="M117.841 112.900 C 85.267 171.159,120.436 246.550,185.800 258.582 C 244.243 269.340,300.919 223.043,300.363 165.000 L 300.328 161.400 299.762 164.600 C 291.175 213.103,238.305 250.310,188.800 242.688 C 181.098 241.502,177.920 240.400,182.203 240.400 C 194.671 240.400,213.708 230.253,224.423 217.896 C 234.400 206.390,238.680 197.697,244.654 176.800 C 248.810 162.264,251.144 156.528,255.858 149.270 C 263.911 136.871,278.725 130.468,292.572 133.401 C 296.154 134.160,296.179 134.041,292.851 132.031 C 278.912 123.609,261.266 124.664,246.121 134.825 C 236.052 141.580,230.007 148.080,218.990 164.000 C 204.055 185.580,194.943 193.675,179.600 198.990 C 151.264 208.807,117.482 193.171,108.389 166.030 C 107.735 164.079,107.210 162.149,107.221 161.741 C 107.233 161.333,107.685 162.496,108.225 164.323 C 109.228 167.717,110.154 169.790,111.903 172.563 C 112.446 173.422,112.938 174.412,112.998 174.763 C 113.057 175.113,113.286 175.362,113.506 175.316 C 113.726 175.269,113.882 175.539,113.853 175.916 C 113.824 176.292,113.995 176.565,114.234 176.522 C 114.472 176.479,115.822 177.649,117.234 179.121 C 119.130 181.099,119.254 181.282,117.709 179.823 C 115.523 177.759,114.476 177.549,115.987 179.479 C 123.949 189.646,137.454 197.456,151.800 200.190 C 155.509 200.897,159.652 201.010,158.024 200.360 C 157.488 200.145,156.588 200.066,156.024 200.184 C 155.461 200.302,154.730 200.222,154.400 200.005 C 153.765 199.590,153.750 199.598,155.464 199.434 C 155.719 199.409,156.330 199.032,156.822 198.595 L 157.716 197.800 157.271 198.650 C 156.876 199.404,156.934 199.500,157.780 199.500 C 158.499 199.500,158.699 199.314,158.590 198.748 C 158.476 198.157,158.590 198.069,159.123 198.335 C 159.495 198.522,160.250 198.553,160.800 198.404 C 161.613 198.183,161.389 198.072,159.600 197.808 C 158.390 197.629,157.615 197.407,157.878 197.316 C 158.140 197.224,158.256 196.890,158.135 196.574 C 158.014 196.258,158.124 196.000,158.381 196.000 C 158.637 196.000,158.736 195.820,158.600 195.600 C 158.464 195.380,158.547 195.200,158.784 195.200 C 159.044 195.200,159.116 195.597,158.964 196.200 C 158.789 196.898,158.877 197.202,159.257 197.205 C 159.555 197.208,160.188 197.315,160.663 197.442 C 161.243 197.598,161.816 197.384,162.410 196.790 C 163.121 196.079,163.362 196.013,163.641 196.453 C 163.915 196.885,163.989 196.855,163.994 196.313 C 163.998 195.878,164.213 195.707,164.579 195.847 C 164.913 195.975,165.677 195.540,166.379 194.821 C 167.726 193.443,168.057 192.663,166.819 193.783 C 166.064 194.466,166.029 194.453,165.763 193.395 C 165.534 192.483,165.427 192.408,165.124 192.950 C 164.700 193.708,163.773 193.804,163.358 193.132 C 163.160 192.811,163.292 192.750,163.779 192.937 C 164.294 193.134,164.429 193.052,164.270 192.638 C 164.149 192.323,164.268 191.983,164.534 191.881 C 164.809 191.775,164.989 191.069,164.950 190.249 C 164.913 189.454,165.007 188.881,165.160 188.975 C 165.631 189.266,166.447 188.561,166.568 187.760 C 166.641 187.272,167.026 186.984,167.641 186.957 C 169.421 186.876,169.648 186.801,169.388 186.381 C 169.209 186.090,168.966 186.096,168.600 186.400 C 168.309 186.641,167.982 186.694,167.873 186.517 C 167.574 186.035,169.035 184.400,169.764 184.400 C 170.114 184.400,170.400 184.237,170.400 184.037 C 170.400 183.491,168.763 184.030,168.523 184.656 C 168.408 184.955,168.143 185.200,167.934 185.200 C 167.724 185.200,167.681 184.992,167.838 184.738 C 168.015 184.452,167.948 184.385,167.662 184.562 C 167.390 184.730,167.200 184.596,167.200 184.236 C 167.200 183.859,167.428 183.713,167.797 183.854 C 168.137 183.985,168.499 183.808,168.639 183.444 C 168.773 183.092,169.033 182.896,169.214 183.009 C 169.396 183.121,169.675 183.002,169.834 182.745 C 170.008 182.463,169.951 182.383,169.689 182.545 C 169.451 182.692,169.142 182.630,169.004 182.407 C 168.771 182.030,169.431 181.838,170.743 181.900 C 171.107 181.917,171.153 181.793,170.882 181.522 C 170.255 180.895,168.171 182.064,168.327 182.956 C 168.402 183.389,168.282 183.574,168.027 183.417 C 167.792 183.271,167.600 182.883,167.600 182.553 C 167.600 182.223,167.420 182.064,167.200 182.200 C 166.980 182.336,166.800 182.271,166.800 182.056 C 166.800 181.841,166.679 181.351,166.532 180.967 C 166.349 180.489,166.413 180.361,166.735 180.560 C 167.002 180.725,167.309 180.581,167.446 180.225 C 167.790 179.328,168.400 179.454,168.400 180.424 C 168.400 180.877,168.220 181.136,168.000 181.000 C 167.780 180.864,167.600 180.956,167.600 181.203 C 167.600 181.698,169.124 181.371,169.800 180.731 C 170.057 180.488,169.969 180.441,169.553 180.599 C 169.117 180.764,168.837 180.584,168.697 180.048 C 168.576 179.588,168.714 179.165,169.024 179.046 C 169.382 178.909,169.479 179.050,169.317 179.472 C 169.151 179.905,169.400 179.821,170.107 179.206 C 170.675 178.712,171.069 178.104,170.983 177.854 C 170.898 177.604,171.633 176.770,172.617 176.000 C 173.602 175.230,177.151 171.810,180.504 168.400 L 186.600 162.201 181.200 167.442 C 163.280 184.835,148.817 191.506,135.029 188.737 C 129.079 187.542,124.494 172.132,125.407 156.400 C 125.579 153.430,125.738 150.235,125.760 149.300 C 125.782 148.365,125.896 147.600,126.013 147.600 C 126.130 147.600,126.245 146.655,126.269 145.500 C 126.294 144.345,126.783 141.526,127.358 139.235 C 128.446 134.897,128.545 133.458,127.538 136.611 L 126.956 138.436 126.201 137.601 C 125.549 136.881,125.539 136.802,126.122 137.026 C 126.508 137.173,126.800 137.095,126.800 136.843 C 126.800 136.599,126.305 136.397,125.700 136.394 C 124.927 136.390,124.762 136.285,125.145 136.042 C 125.606 135.751,125.606 135.663,125.145 135.479 C 124.698 135.300,124.708 135.185,125.200 134.837 C 125.530 134.603,125.620 134.389,125.400 134.360 C 125.180 134.331,124.820 134.266,124.600 134.215 C 124.380 134.164,123.840 134.092,123.400 134.055 C 122.732 133.999,122.699 133.924,123.200 133.600 C 123.733 133.255,123.733 133.211,123.200 133.200 C 122.667 133.189,122.667 133.140,123.200 132.759 C 123.682 132.415,123.623 132.369,122.900 132.528 C 122.406 132.636,121.898 132.559,121.773 132.356 C 121.647 132.153,121.377 132.091,121.172 132.217 C 120.848 132.418,120.597 131.225,120.763 130.270 C 120.794 130.089,120.607 130.072,120.347 130.233 C 120.018 130.436,119.943 130.263,120.100 129.663 C 120.365 128.646,120.165 128.578,119.339 129.404 C 119.007 129.736,118.570 129.905,118.368 129.780 C 117.828 129.447,117.919 130.150,118.500 130.801 C 118.925 131.278,118.896 131.282,118.300 130.832 C 117.452 130.190,117.353 129.020,118.173 129.334 C 118.559 129.482,118.728 129.300,118.688 128.777 C 118.656 128.350,118.477 128.000,118.291 128.000 C 118.105 128.000,118.081 127.792,118.238 127.538 C 118.416 127.250,118.348 127.185,118.055 127.366 C 117.798 127.525,117.691 127.823,117.817 128.028 C 117.944 128.232,117.883 128.400,117.681 128.400 C 117.480 128.400,117.113 127.815,116.865 127.100 L 116.415 125.800 116.613 127.000 C 116.790 128.071,116.760 128.114,116.340 127.400 C 116.080 126.960,115.673 126.465,115.434 126.300 C 115.138 126.095,115.191 125.864,115.600 125.574 C 116.080 125.233,116.030 125.195,115.347 125.386 C 114.769 125.547,114.414 125.412,114.243 124.967 C 114.041 124.441,113.874 124.406,113.409 124.793 C 112.419 125.614,114.286 120.713,117.020 115.315 C 119.705 110.013,120.092 108.874,117.841 112.900 M106.682 157.700 C 106.587 158.195,106.509 157.790,106.509 156.800 C 106.509 155.810,106.587 155.405,106.682 155.900 C 106.778 156.395,106.778 157.205,106.682 157.700 M165.919 182.459 C 165.634 182.640,165.580 182.793,165.800 182.800 C 166.020 182.807,165.935 182.980,165.611 183.185 C 165.233 183.424,164.927 183.406,164.760 183.136 C 164.611 182.894,164.114 182.837,163.597 183.001 C 162.944 183.208,162.836 183.375,163.208 183.605 C 163.534 183.806,163.333 183.900,162.662 183.862 C 161.346 183.785,161.330 183.838,162.958 182.878 C 163.995 182.266,164.435 182.186,164.817 182.538 C 165.206 182.896,165.266 182.852,165.086 182.339 C 164.776 181.453,165.196 181.099,165.882 181.668 C 166.333 182.042,166.340 182.192,165.919 182.459 M122.800 183.875 C 122.800 184.153,120.460 182.421,120.144 181.909 C 119.989 181.659,120.524 181.959,121.332 182.575 C 122.139 183.191,122.800 183.776,122.800 183.875 M166.305 184.326 C 166.041 185.027,165.593 185.600,165.309 185.600 C 164.782 185.600,165.191 184.572,166.200 183.361 C 166.805 182.634,166.837 182.919,166.305 184.326 M167.030 185.942 C 166.267 186.704,165.961 186.437,166.265 185.274 C 166.453 184.555,166.608 184.474,167.069 184.857 C 167.562 185.267,167.557 185.414,167.030 185.942 M127.830 186.703 C 127.649 186.884,124.400 185.268,124.400 184.997 C 124.400 184.894,125.206 185.202,126.191 185.681 C 127.176 186.159,127.914 186.619,127.830 186.703 M159.600 184.990 C 159.600 185.232,157.344 186.405,156.920 186.383 C 156.744 186.374,157.230 186.022,158.000 185.600 C 159.577 184.737,159.600 184.728,159.600 184.990 M164.400 185.976 C 164.400 186.403,164.608 186.881,164.862 187.038 C 165.137 187.209,165.215 187.149,165.055 186.889 C 164.627 186.197,165.458 185.947,166.004 186.604 C 166.331 186.999,166.351 187.200,166.062 187.200 C 165.821 187.200,165.725 187.460,165.847 187.778 C 166.000 188.177,165.811 188.336,165.234 188.293 C 164.775 188.258,164.395 187.953,164.388 187.615 C 164.378 187.114,164.300 187.130,163.968 187.700 C 163.518 188.472,162.800 188.642,162.800 187.976 C 162.800 187.743,162.961 187.652,163.158 187.774 C 163.483 187.975,164.000 187.159,164.000 186.444 C 164.000 186.285,163.460 186.192,162.801 186.237 C 162.142 186.283,161.692 186.175,161.801 185.998 C 161.911 185.820,162.361 185.769,162.800 185.884 C 163.247 186.001,163.600 185.896,163.600 185.647 C 163.600 185.401,163.780 185.200,164.000 185.200 C 164.220 185.200,164.400 185.549,164.400 185.976 M131.600 188.067 C 132.017 188.325,131.895 188.357,131.200 188.171 C 130.650 188.024,129.930 187.736,129.600 187.533 C 129.183 187.275,129.305 187.243,130.000 187.429 C 130.550 187.576,131.270 187.864,131.600 188.067 M166.238 189.644 C 165.436 191.001,165.420 191.437,166.200 190.657 C 166.530 190.327,166.803 189.819,166.806 189.529 C 166.811 189.138,166.914 189.157,167.200 189.600 C 167.535 190.119,167.589 190.110,167.594 189.533 C 167.597 189.167,167.825 188.780,168.100 188.674 C 168.375 188.568,168.212 188.500,167.738 188.523 C 167.254 188.546,166.595 189.039,166.238 189.644 M164.394 190.967 C 164.402 191.990,164.173 191.671,163.844 190.200 C 163.648 189.324,163.685 189.162,163.982 189.600 C 164.205 189.930,164.391 190.545,164.394 190.967 M162.700 192.600 C 162.700 193.379,162.495 193.600,161.774 193.600 C 160.654 193.600,160.135 192.904,160.779 192.265 C 161.136 191.911,161.190 191.951,161.006 192.433 C 160.851 192.842,160.985 193.067,161.383 193.067 C 161.722 193.067,162.000 192.737,162.000 192.333 C 162.000 191.930,162.158 191.600,162.350 191.600 C 162.543 191.600,162.700 192.050,162.700 192.600 M165.600 194.357 C 165.600 194.774,165.330 195.218,165.000 195.345 C 164.387 195.580,164.124 194.410,164.667 193.867 C 165.165 193.369,165.600 193.597,165.600 194.357 M163.245 194.844 C 162.509 195.634,162.401 195.646,161.541 195.044 C 161.035 194.690,160.806 194.400,161.031 194.400 C 161.256 194.400,161.650 194.610,161.907 194.867 C 162.263 195.223,162.435 195.175,162.630 194.667 C 162.770 194.300,163.143 194.000,163.458 194.000 C 163.888 194.000,163.835 194.211,163.245 194.844 M167.353 195.278 C 166.939 195.751,166.825 196.006,167.100 195.845 C 167.375 195.684,167.600 195.743,167.600 195.976 C 167.600 196.209,167.802 196.400,168.049 196.400 C 168.372 196.400,168.366 196.241,168.030 195.836 C 167.741 195.488,167.709 195.180,167.946 195.033 C 168.158 194.902,168.423 195.021,168.534 195.298 C 168.679 195.657,168.746 195.665,168.768 195.324 C 168.827 194.437,168.111 194.414,167.353 195.278 M161.740 196.613 C 161.485 197.276,160.800 197.412,160.800 196.800 C 160.800 196.580,160.991 196.400,161.224 196.400 C 161.457 196.400,161.519 196.192,161.362 195.938 C 161.189 195.659,161.252 195.585,161.521 195.751 C 161.765 195.902,161.864 196.290,161.740 196.613 M156.400 197.338 C 156.400 197.977,154.874 198.771,154.670 198.238 C 154.520 197.848,154.628 197.713,154.980 197.848 C 155.276 197.961,155.638 197.862,155.783 197.627 C 156.036 197.218,156.400 197.048,156.400 197.338 M178.200 197.814 C 177.200 198.296,177.166 198.351,178.000 198.148 C 179.133 197.871,180.407 197.221,179.800 197.230 C 179.580 197.233,178.860 197.496,178.200 197.814 M165.379 197.966 C 165.503 198.167,165.379 198.423,165.102 198.534 C 164.789 198.660,164.770 198.749,165.051 198.768 C 165.299 198.786,165.726 198.530,166.000 198.200 C 166.409 197.707,166.378 197.600,165.825 197.600 C 165.455 197.600,165.255 197.765,165.379 197.966 M162.000 198.702 C 162.000 198.922,162.270 199.326,162.600 199.600 C 162.935 199.878,163.200 199.921,163.200 199.698 C 163.200 199.478,162.930 199.074,162.600 198.800 C 162.265 198.522,162.000 198.479,162.000 198.702 M160.184 199.227 C 160.039 199.461,160.053 199.776,160.215 199.927 C 160.377 200.077,160.590 199.974,160.689 199.698 C 160.788 199.421,161.061 199.314,161.296 199.459 C 161.549 199.616,161.607 199.535,161.438 199.262 C 161.081 198.684,160.529 198.668,160.184 199.227 M168.583 199.573 C 168.710 199.778,168.316 200.021,167.707 200.113 C 166.838 200.244,166.933 200.293,168.149 200.340 C 169.484 200.392,169.629 200.317,169.200 199.800 C 168.653 199.141,168.217 198.980,168.583 199.573 M171.000 199.600 C 169.922 199.874,169.902 199.906,170.800 199.913 C 171.350 199.917,172.250 199.776,172.800 199.600 C 174.144 199.169,172.692 199.169,171.000 199.600 M159.700 200.676 C 160.085 200.776,160.715 200.776,161.100 200.676 C 161.485 200.575,161.170 200.493,160.400 200.493 C 159.630 200.493,159.315 200.575,159.700 200.676 M163.107 200.690 C 163.826 200.779,164.906 200.777,165.507 200.686 C 166.108 200.595,165.520 200.522,164.200 200.524 C 162.880 200.526,162.388 200.601,163.107 200.690 M80.200 279.774 C 75.108 281.507,72.162 285.761,72.274 291.216 C 72.399 297.302,75.937 300.210,86.432 302.850 C 93.405 304.604,95.361 305.717,95.826 308.199 C 97.082 314.894,86.038 316.446,76.946 310.852 C 74.414 309.294,74.851 309.176,72.613 312.025 L 70.708 314.450 71.597 315.396 C 72.085 315.917,73.951 317.076,75.743 317.972 C 88.792 324.502,102.410 319.635,102.529 308.400 C 102.598 301.820,99.304 299.004,88.296 296.231 C 80.603 294.294,78.800 293.165,78.800 290.287 C 78.800 284.606,88.185 283.343,95.727 288.008 C 96.786 288.664,97.696 289.200,97.749 289.200 C 97.802 289.200,98.724 288.004,99.797 286.542 L 101.749 283.884 100.607 282.973 C 95.663 279.030,86.571 277.605,80.200 279.774 M111.678 294.310 L 111.800 309.419 113.100 312.059 C 119.371 324.790,141.457 323.552,145.408 310.247 C 145.883 308.648,146.000 305.385,146.000 293.727 L 146.000 279.200 142.800 279.200 L 139.600 279.200 139.600 292.527 C 139.600 303.108,139.478 306.264,139.010 307.841 C 136.580 316.025,123.084 316.686,119.433 308.800 C 118.648 307.104,118.593 306.198,118.476 293.100 L 118.353 279.200 114.954 279.200 L 111.556 279.200 111.678 294.310 M157.600 299.600 L 157.600 320.000 161.000 320.000 L 164.400 320.000 164.400 311.200 L 164.400 302.400 174.400 302.400 L 184.400 302.400 184.400 311.200 L 184.400 320.000 187.800 320.000 L 191.200 320.000 191.200 299.600 L 191.200 279.200 187.800 279.200 L 184.400 279.200 184.400 287.400 L 184.400 295.600 174.400 295.600 L 164.400 295.600 164.400 287.400 L 164.400 279.200 161.000 279.200 L 157.600 279.200 157.600 299.600 M212.826 287.494 C 210.970 292.062,207.235 301.148,204.526 307.685 C 201.817 314.222,199.600 319.667,199.600 319.785 C 199.600 319.903,201.192 320.000,203.139 320.000 L 206.678 320.000 208.648 315.100 L 210.618 310.200 219.978 310.200 L 229.338 310.200 231.215 315.000 L 233.093 319.800 237.195 319.915 C 240.415 320.004,241.251 319.918,241.085 319.515 C 240.750 318.699,232.432 299.118,228.038 288.800 L 224.035 279.400 220.117 279.294 L 216.200 279.188 212.826 287.494 M248.800 299.584 L 248.800 320.000 252.210 320.000 L 255.619 320.000 255.510 305.400 C 255.449 297.370,255.522 290.845,255.672 290.900 C 255.822 290.955,258.162 294.193,260.872 298.097 C 263.582 302.000,268.140 308.524,271.000 312.596 L 276.200 319.999 279.900 319.999 L 283.600 320.000 283.600 299.600 L 283.600 279.200 280.205 279.200 L 276.810 279.200 276.705 294.024 L 276.600 308.848 272.327 302.724 C 269.976 299.356,265.285 292.730,261.902 288.000 L 255.751 279.400 252.275 279.284 L 248.800 279.169 248.800 299.584 M300.219 298.286 C 295.857 308.799,292.052 317.985,291.764 318.700 L 291.241 320.000 294.920 319.993 L 298.600 319.985 300.607 315.093 L 302.613 310.200 311.794 310.200 L 320.975 310.200 322.865 315.000 L 324.755 319.800 328.816 319.914 C 331.049 319.977,332.814 319.870,332.738 319.677 C 332.573 319.256,325.467 302.416,319.793 289.000 L 315.733 279.400 311.942 279.286 L 308.151 279.173 300.219 298.286 M223.590 295.398 C 225.351 299.987,226.729 303.804,226.653 303.881 C 226.576 303.957,223.540 303.970,219.905 303.910 L 213.296 303.800 216.238 296.400 C 217.856 292.330,219.365 288.476,219.592 287.835 C 220.141 286.281,219.956 285.931,223.590 295.398 M315.165 295.308 C 316.944 299.877,318.400 303.702,318.400 303.808 C 318.400 303.913,315.430 304.000,311.800 304.000 C 308.170 304.000,305.200 303.936,305.200 303.858 C 305.200 303.780,306.554 300.135,308.208 295.758 C 309.863 291.381,311.307 287.549,311.418 287.243 C 311.714 286.423,311.663 286.315,315.165 295.308 " stroke="none" fill="#1e5165" fill-rule="evenodd"></path><path id="path1" d="M0.000 200.000 L 0.000 400.000 200.000 400.000 L 400.000 400.000 400.000 200.000 L 400.000 0.000 200.000 0.000 L 0.000 0.000 0.000 200.000 M219.095 62.369 C 228.108 63.718,235.947 66.123,244.500 70.164 C 249.039 72.308,249.358 72.618,245.900 71.527 C 220.698 63.574,186.397 70.659,162.600 88.735 C 133.453 110.874,118.825 150.013,128.640 179.600 C 131.476 188.149,133.024 189.141,142.837 188.701 C 158.064 188.019,170.025 179.743,193.854 153.400 C 218.913 125.699,234.685 116.418,256.771 116.376 C 273.447 116.344,289.697 123.434,295.103 133.100 C 295.701 134.168,295.820 134.157,291.865 133.400 C 280.867 131.295,269.435 134.947,261.225 143.186 C 253.874 150.563,249.622 159.344,245.043 176.600 C 235.249 213.507,214.654 235.400,185.033 240.388 L 181.067 241.056 186.233 241.986 C 225.979 249.140,268.339 228.621,289.011 192.200 C 294.786 182.024,298.410 172.369,299.818 163.400 L 300.321 160.200 300.360 165.516 C 300.675 207.798,269.152 246.921,226.008 257.792 C 164.540 273.281,103.558 223.164,105.312 158.600 C 106.715 106.982,144.573 66.864,197.000 61.441 C 200.753 61.053,214.020 61.610,219.095 62.369 M217.900 67.496 C 219.275 67.574,221.525 67.574,222.900 67.496 C 224.275 67.418,223.150 67.354,220.400 67.354 C 217.650 67.354,216.525 67.418,217.900 67.496 M212.500 67.876 C 212.885 67.976,213.515 67.976,213.900 67.876 C 214.285 67.775,213.970 67.693,213.200 67.693 C 212.430 67.693,212.115 67.775,212.500 67.876 M229.505 67.883 C 230.002 67.979,230.722 67.975,231.105 67.875 C 231.487 67.775,231.080 67.696,230.200 67.701 C 229.320 67.705,229.007 67.787,229.505 67.883 M260.208 127.252 C 257.127 128.130,251.764 130.538,248.721 132.411 C 247.640 133.076,246.558 133.498,246.316 133.348 C 246.031 133.172,245.992 133.263,246.204 133.606 C 246.441 133.990,246.349 134.066,245.870 133.882 C 245.507 133.743,245.252 133.781,245.305 133.968 C 245.357 134.155,243.496 135.761,241.169 137.537 C 236.596 141.028,232.469 145.143,228.469 150.200 C 227.077 151.960,226.794 152.410,227.841 151.200 C 238.798 138.536,250.447 130.345,262.000 127.184 C 263.430 126.792,264.240 126.469,263.800 126.465 C 263.360 126.460,261.744 126.815,260.208 127.252 M93.200 279.276 C 95.368 279.795,100.065 282.167,101.025 283.228 C 101.766 284.046,101.438 284.734,98.676 288.159 L 97.741 289.318 95.171 287.893 C 87.313 283.539,79.200 284.638,79.200 290.057 C 79.200 293.281,80.430 294.084,88.557 296.167 C 101.085 299.379,105.110 304.292,101.987 312.563 C 98.257 322.445,79.991 324.014,71.054 315.220 C 70.409 314.585,73.634 309.200,74.658 309.200 C 74.721 309.200,75.864 309.905,77.197 310.767 C 85.456 316.105,95.600 315.195,95.600 309.115 C 95.600 306.012,94.166 305.065,86.310 302.981 C 75.031 299.988,71.993 297.306,72.004 290.354 C 72.017 281.558,81.667 276.515,93.200 279.276 M118.800 293.154 L 118.800 307.109 119.918 309.248 C 123.358 315.834,134.624 315.994,138.089 309.505 C 138.981 307.836,139.002 307.501,139.119 293.500 L 139.238 279.200 142.819 279.200 L 146.400 279.200 146.400 293.527 C 146.400 309.529,146.271 310.538,143.744 314.271 C 138.254 322.382,123.731 323.487,116.201 316.365 C 111.711 312.119,111.208 309.594,111.203 291.300 L 111.200 279.200 115.000 279.200 L 118.800 279.200 118.800 293.154 M164.400 287.400 L 164.400 295.600 174.400 295.600 L 184.400 295.600 184.400 287.400 L 184.400 279.200 188.000 279.200 L 191.600 279.200 191.600 299.600 L 191.600 320.000 188.000 320.000 L 184.400 320.000 184.400 311.200 L 184.400 302.400 174.400 302.400 L 164.400 302.400 164.400 311.200 L 164.400 320.000 160.800 320.000 L 157.200 320.000 157.200 299.600 L 157.200 279.200 160.800 279.200 L 164.400 279.200 164.400 287.400 M227.410 286.700 C 229.124 290.825,232.996 300.011,236.013 307.113 L 241.500 320.026 237.274 319.913 L 233.048 319.800 231.199 315.200 L 229.351 310.600 220.119 310.493 L 210.886 310.385 208.943 315.186 L 207.000 319.986 203.155 319.993 L 199.309 320.000 204.394 307.500 C 207.190 300.625,210.975 291.445,212.803 287.100 L 216.128 279.200 220.210 279.200 L 224.293 279.200 227.410 286.700 M260.334 285.400 C 266.231 293.827,276.064 307.745,276.356 308.080 C 276.490 308.235,276.549 301.800,276.486 293.780 L 276.372 279.200 279.986 279.200 L 283.600 279.200 283.600 299.600 L 283.600 320.000 279.700 319.988 L 275.800 319.975 273.126 316.088 C 265.875 305.547,261.055 298.635,258.460 295.053 L 255.600 291.106 255.600 305.553 L 255.600 320.000 252.200 320.000 L 248.800 320.000 248.800 299.585 L 248.800 279.170 252.467 279.285 L 256.135 279.400 260.334 285.400 M322.503 294.902 C 328.494 308.934,332.800 319.359,332.800 319.832 C 332.800 319.924,330.931 320.000,328.647 320.000 L 324.494 320.000 322.613 315.193 L 320.733 310.385 311.680 310.493 L 302.626 310.600 300.624 315.300 L 298.623 320.000 294.911 320.000 C 292.870 320.000,291.200 319.878,291.200 319.728 C 291.200 319.578,293.430 314.133,296.155 307.628 C 298.880 301.123,302.596 292.065,304.412 287.500 L 307.715 279.200 311.757 279.202 L 315.800 279.204 322.503 294.902 M308.663 295.251 C 306.938 299.656,305.608 303.341,305.707 303.440 C 305.806 303.540,308.665 303.571,312.060 303.510 L 318.232 303.400 315.133 295.600 C 313.428 291.310,311.981 287.674,311.916 287.521 C 311.852 287.368,310.388 290.846,308.663 295.251 M216.729 295.505 L 213.659 303.400 219.886 303.510 C 223.310 303.571,226.172 303.562,226.244 303.489 C 226.433 303.300,220.277 287.599,220.016 287.605 C 219.897 287.608,218.418 291.163,216.729 295.505 " stroke="none" fill="#fbfbfb" fill-rule="evenodd"></path><path id="path2" d="M196.800 61.446 C 190.329 62.041,179.339 64.101,176.600 65.233 C 175.940 65.505,175.175 65.692,174.900 65.647 C 174.625 65.602,174.400 65.747,174.400 65.970 C 174.400 66.193,174.130 66.271,173.800 66.145 C 173.470 66.018,173.200 66.108,173.200 66.345 C 173.200 66.581,172.930 66.671,172.600 66.545 C 172.270 66.418,172.000 66.508,172.000 66.745 C 172.000 66.982,171.701 67.060,171.334 66.919 C 170.848 66.733,170.758 66.808,171.000 67.200 C 171.242 67.592,171.152 67.667,170.666 67.481 C 170.299 67.340,170.000 67.418,170.000 67.655 C 170.000 67.892,169.721 67.978,169.379 67.847 C 168.974 67.692,168.858 67.770,169.045 68.073 C 169.236 68.382,169.110 68.451,168.666 68.281 C 168.299 68.140,168.000 68.218,168.000 68.455 C 168.000 68.692,167.721 68.778,167.379 68.647 C 166.974 68.492,166.858 68.570,167.045 68.873 C 167.236 69.182,167.110 69.251,166.666 69.081 C 166.300 68.940,166.000 69.010,166.000 69.236 C 166.000 69.462,165.836 69.546,165.636 69.422 C 165.148 69.120,163.953 69.601,164.200 70.000 C 164.464 70.427,163.236 70.869,162.702 70.539 C 162.432 70.372,162.396 70.470,162.604 70.806 C 162.844 71.194,162.747 71.265,162.245 71.073 C 161.782 70.895,161.652 70.960,161.845 71.273 C 162.038 71.585,161.907 71.650,161.445 71.473 C 160.982 71.295,160.852 71.360,161.045 71.673 C 161.238 71.985,161.107 72.050,160.645 71.873 C 160.182 71.695,160.052 71.760,160.245 72.073 C 160.438 72.385,160.307 72.450,159.845 72.273 C 159.467 72.128,159.252 72.161,159.367 72.346 C 159.481 72.531,159.119 72.891,158.562 73.145 C 157.795 73.494,157.619 73.494,157.836 73.142 C 158.180 72.585,153.648 75.033,152.329 76.116 C 151.418 76.864,153.130 75.980,155.500 74.478 C 155.995 74.165,156.400 74.001,156.400 74.115 C 156.400 74.229,154.608 75.423,152.419 76.769 C 150.229 78.114,148.329 79.392,148.195 79.608 C 147.836 80.189,147.104 80.084,147.441 79.500 C 147.608 79.210,147.576 79.140,147.364 79.333 C 147.164 79.517,147.000 79.862,147.000 80.100 C 147.000 80.338,146.750 80.617,146.444 80.719 C 146.060 80.847,145.991 80.734,146.221 80.352 C 146.497 79.894,146.445 79.888,145.915 80.317 C 145.563 80.602,145.326 81.142,145.387 81.517 C 145.543 82.482,144.862 83.198,144.071 82.901 C 143.488 82.683,143.472 82.738,143.945 83.321 C 144.245 83.689,144.638 83.900,144.818 83.789 C 144.998 83.678,145.258 83.770,145.396 83.993 C 145.534 84.217,145.457 84.400,145.224 84.400 C 144.991 84.400,144.800 84.580,144.800 84.800 C 144.800 85.020,144.935 85.179,145.100 85.153 C 145.265 85.127,145.490 85.140,145.600 85.183 C 146.349 85.475,147.200 85.473,147.200 85.179 C 147.200 84.986,147.605 84.632,148.100 84.392 C 148.912 83.998,148.932 84.011,148.300 84.522 C 147.915 84.833,147.600 85.293,147.600 85.544 C 147.600 85.795,147.380 86.000,147.111 86.000 C 146.842 86.000,147.022 86.280,147.512 86.623 C 148.001 86.966,148.579 87.137,148.796 87.002 C 149.014 86.868,149.093 87.013,148.972 87.328 C 148.852 87.641,149.002 88.145,149.306 88.448 C 149.869 89.011,150.000 89.303,150.000 89.987 C 150.000 90.201,150.309 90.256,150.687 90.111 C 151.294 89.878,151.306 89.920,150.789 90.474 C 150.467 90.818,149.933 91.021,149.602 90.924 C 149.271 90.828,149.495 91.036,150.100 91.387 C 151.429 92.159,151.541 92.797,150.300 92.535 C 149.432 92.352,149.428 92.362,150.200 92.838 C 151.277 93.502,151.646 94.125,151.145 94.434 C 150.900 94.586,150.998 94.790,151.387 94.940 C 151.747 95.078,151.962 95.058,151.866 94.895 C 151.769 94.733,152.525 93.979,153.545 93.221 C 155.389 91.849,155.385 91.858,152.800 94.731 C 144.307 104.170,134.705 117.867,136.582 117.867 C 136.902 117.867,137.065 117.705,136.943 117.508 C 136.422 116.665,145.316 103.695,146.284 103.887 C 146.526 103.935,146.966 103.665,147.262 103.287 C 147.747 102.667,147.732 102.654,147.100 103.149 C 146.715 103.451,146.400 103.531,146.400 103.327 C 146.400 102.810,149.004 100.337,149.269 100.603 C 149.388 100.722,149.737 100.510,150.043 100.133 C 150.412 99.679,150.431 99.548,150.100 99.747 C 147.454 101.336,154.757 93.996,159.800 89.998 C 171.945 80.368,187.946 72.775,202.200 69.877 C 204.959 69.317,206.660 68.809,206.200 68.684 C 205.760 68.564,206.372 68.568,207.560 68.693 C 208.921 68.835,209.631 68.774,209.479 68.528 C 209.330 68.287,210.035 68.187,211.319 68.267 C 212.463 68.338,213.092 68.262,212.716 68.098 C 212.339 67.934,216.422 67.800,221.788 67.800 C 229.966 67.800,231.306 67.878,230.072 68.284 C 228.502 68.800,231.787 68.664,233.800 68.130 L 234.600 67.917 233.800 68.569 C 233.043 69.187,233.105 69.207,234.957 68.957 C 236.512 68.747,236.848 68.799,236.591 69.214 C 236.362 69.585,236.453 69.665,236.906 69.491 C 237.256 69.357,238.141 69.171,238.872 69.079 C 239.602 68.987,239.885 68.989,239.500 69.084 C 239.115 69.178,238.800 69.435,238.800 69.655 C 238.800 69.886,239.180 69.935,239.700 69.772 C 240.867 69.407,241.478 69.287,241.100 69.499 C 240.452 69.861,240.846 70.481,241.600 70.284 C 242.039 70.169,242.508 70.250,242.640 70.465 C 242.773 70.679,243.121 70.762,243.415 70.650 C 243.708 70.537,244.027 70.660,244.124 70.922 C 244.251 71.268,244.429 71.279,244.765 70.965 C 245.651 70.136,235.403 65.973,227.609 63.997 C 219.895 62.040,204.342 60.753,196.800 61.446 M222.900 67.496 C 221.525 67.574,219.275 67.574,217.900 67.496 C 216.525 67.418,217.650 67.354,220.400 67.354 C 223.150 67.354,224.275 67.418,222.900 67.496 M245.600 71.133 C 245.600 71.316,246.230 71.659,247.000 71.895 C 248.710 72.420,248.798 72.226,247.220 71.410 C 245.871 70.713,245.600 70.666,245.600 71.133 M149.493 77.814 C 148.672 78.372,148.000 78.915,148.000 79.020 C 148.000 79.125,148.720 78.735,149.600 78.153 C 150.997 77.228,151.470 76.800,151.093 76.800 C 151.034 76.800,150.314 77.256,149.493 77.814 M138.378 86.700 L 137.000 88.200 138.500 86.822 C 139.325 86.063,140.000 85.388,140.000 85.322 C 140.000 85.016,139.662 85.304,138.378 86.700 M154.975 94.900 L 153.800 96.200 155.100 95.025 C 156.312 93.930,156.584 93.600,156.275 93.600 C 156.206 93.600,155.621 94.185,154.975 94.900 M253.000 116.441 C 239.946 117.150,224.522 123.641,216.034 131.998 C 214.677 133.334,213.421 134.336,213.242 134.226 C 213.063 134.115,212.485 134.514,211.958 135.112 L 211.000 136.200 212.200 135.211 C 212.860 134.666,212.063 135.603,210.429 137.292 C 208.110 139.688,207.671 140.315,208.429 140.147 C 209.120 139.993,209.244 140.041,208.857 140.315 C 208.227 140.762,208.935 141.411,209.603 140.998 C 209.825 140.861,210.295 141.038,210.648 141.391 C 211.212 141.955,211.396 141.964,212.166 141.459 C 212.982 140.924,213.077 140.964,213.556 142.045 C 213.842 142.691,214.258 143.088,214.496 142.940 C 214.731 142.795,214.818 142.848,214.688 143.057 C 214.343 143.615,215.035 144.549,215.555 144.228 C 215.800 144.076,216.000 143.773,216.000 143.553 C 216.000 143.333,215.822 143.263,215.605 143.397 C 215.367 143.544,215.318 143.358,215.481 142.934 C 215.717 142.317,215.806 142.354,216.176 143.225 C 216.445 143.859,216.855 144.172,217.299 144.082 C 217.795 143.983,217.927 144.124,217.757 144.569 C 217.624 144.913,217.385 145.114,217.225 145.015 C 217.064 144.916,216.933 145.097,216.933 145.418 C 216.933 146.217,217.456 146.151,217.779 145.311 C 218.005 144.721,218.096 144.707,218.415 145.211 C 218.728 145.705,218.789 145.687,218.794 145.100 C 218.797 144.715,218.955 144.400,219.145 144.400 C 219.334 144.400,219.402 144.854,219.296 145.408 C 219.117 146.346,219.175 146.390,220.131 146.026 C 221.194 145.622,222.006 146.620,221.405 147.592 C 221.264 147.821,221.418 147.891,221.767 147.757 C 222.101 147.629,222.335 147.406,222.287 147.262 C 222.239 147.118,222.380 147.000,222.600 147.000 C 222.820 147.000,222.975 147.225,222.944 147.500 C 222.914 147.775,223.274 148.003,223.744 148.006 C 224.446 148.011,224.492 148.083,224.000 148.406 C 223.467 148.756,223.467 148.844,224.000 149.194 C 224.780 149.706,225.315 149.709,225.000 149.200 C 224.864 148.980,224.943 148.800,225.176 148.800 C 225.409 148.800,225.600 148.980,225.600 149.200 C 225.600 149.420,225.881 149.600,226.224 149.600 C 226.567 149.600,226.759 149.457,226.651 149.283 C 226.544 149.109,226.811 148.939,227.246 148.907 C 227.888 148.858,227.664 149.321,226.044 151.382 C 224.948 152.776,221.402 157.851,218.164 162.658 C 214.926 167.466,212.017 171.704,211.699 172.075 C 211.381 172.446,211.232 172.928,211.367 173.147 C 211.502 173.366,211.402 173.675,211.145 173.834 C 210.827 174.030,210.781 173.943,211.002 173.562 C 211.192 173.234,211.178 173.137,210.969 173.328 C 210.772 173.509,210.608 173.959,210.605 174.328 C 210.602 174.698,210.362 174.951,210.070 174.890 C 209.779 174.830,209.644 174.948,209.771 175.153 C 209.999 175.521,207.616 178.722,204.837 181.781 C 204.046 182.651,203.737 183.105,204.149 182.792 C 206.263 181.181,212.555 173.114,218.806 164.000 C 221.296 160.370,224.149 156.332,225.146 155.027 C 226.143 153.723,226.698 152.807,226.379 152.992 C 226.061 153.177,226.247 152.805,226.794 152.165 C 228.372 150.316,228.546 150.146,228.195 150.800 C 228.003 151.156,228.020 151.264,228.236 151.067 C 228.436 150.883,228.606 150.613,228.614 150.467 C 228.649 149.814,229.673 148.398,229.975 148.584 C 230.381 148.836,231.290 147.823,230.957 147.490 C 230.672 147.205,237.549 140.000,238.106 140.000 C 238.322 140.000,238.254 140.315,237.956 140.700 C 237.505 141.282,237.562 141.273,238.297 140.647 C 238.783 140.232,239.097 139.758,238.995 139.592 C 238.734 139.170,239.807 138.348,240.440 138.486 C 240.728 138.549,240.972 138.330,240.983 138.000 C 240.993 137.670,241.362 137.400,241.801 137.399 C 242.240 137.399,242.604 137.129,242.610 136.799 C 242.615 136.470,242.928 136.225,243.305 136.255 C 243.683 136.285,243.898 136.158,243.783 135.972 C 243.668 135.787,244.029 135.338,244.584 134.974 C 245.139 134.610,245.495 134.154,245.376 133.961 C 245.256 133.767,245.467 133.728,245.845 133.873 C 246.335 134.061,246.442 133.991,246.217 133.628 C 245.967 133.222,246.084 133.217,246.800 133.600 C 247.334 133.886,247.592 133.910,247.437 133.660 C 247.109 133.129,248.662 132.267,249.270 132.643 C 249.543 132.812,249.613 132.745,249.448 132.477 C 249.106 131.925,252.238 130.253,252.876 130.647 C 253.169 130.828,253.210 130.741,252.996 130.394 C 252.756 130.006,252.853 129.935,253.355 130.127 C 253.818 130.305,253.948 130.240,253.755 129.927 C 253.562 129.615,253.693 129.550,254.155 129.727 C 254.533 129.873,254.740 129.826,254.615 129.624 C 254.321 129.149,255.851 128.661,256.458 129.036 C 256.735 129.207,256.816 129.150,256.659 128.895 C 256.334 128.369,260.165 127.024,261.036 127.358 C 261.422 127.507,261.540 127.427,261.361 127.137 C 261.170 126.827,261.412 126.747,262.128 126.884 C 262.765 127.006,263.079 126.929,262.930 126.687 C 262.773 126.432,263.223 126.390,264.182 126.570 C 265.120 126.746,265.589 126.706,265.438 126.462 C 265.285 126.214,267.490 126.112,271.499 126.182 C 279.968 126.328,284.705 127.425,290.873 130.666 C 293.535 132.065,295.240 132.707,294.603 132.070 C 294.455 131.921,294.213 131.795,294.067 131.789 C 293.920 131.784,292.540 131.067,291.000 130.198 C 288.094 128.557,281.904 126.036,280.724 126.013 C 280.352 126.006,279.943 125.831,279.815 125.624 C 279.677 125.401,280.200 125.330,281.091 125.450 C 282.306 125.613,282.464 125.565,281.900 125.206 C 281.515 124.961,281.187 124.454,281.172 124.080 C 281.149 123.521,281.082 123.543,280.800 124.200 C 280.611 124.640,280.444 124.790,280.428 124.533 C 280.413 124.276,280.291 123.781,280.157 123.433 C 279.985 122.984,280.150 122.800,280.728 122.800 C 281.182 122.800,281.604 123.109,281.682 123.500 C 281.811 124.137,281.847 124.141,282.085 123.536 C 282.294 123.007,281.668 122.567,278.995 121.363 C 277.152 120.533,275.724 119.723,275.822 119.564 C 275.921 119.405,275.613 119.376,275.138 119.500 C 274.495 119.668,274.358 119.592,274.599 119.201 C 274.817 118.850,274.768 118.773,274.452 118.968 C 273.735 119.411,271.350 118.805,272.047 118.357 C 272.397 118.132,272.087 118.087,271.200 118.234 C 270.134 118.412,269.943 118.364,270.400 118.034 C 270.855 117.706,270.671 117.664,269.638 117.863 C 268.667 118.050,268.357 117.994,268.558 117.668 C 268.758 117.345,268.467 117.287,267.558 117.468 C 266.646 117.651,266.357 117.593,266.558 117.267 C 266.763 116.937,266.307 116.873,264.921 117.038 C 263.424 117.216,263.132 117.164,263.600 116.805 C 264.064 116.449,263.698 116.401,261.977 116.592 C 260.754 116.727,259.314 116.690,258.777 116.509 C 258.239 116.328,255.640 116.297,253.000 116.441 M135.086 119.562 C 134.709 120.201,134.407 120.876,134.416 121.062 C 134.425 121.248,134.703 120.900,135.035 120.288 C 135.367 119.677,135.807 119.281,136.014 119.409 C 136.221 119.537,136.284 119.362,136.153 119.021 C 135.847 118.224,135.889 118.203,135.086 119.562 M291.400 128.800 C 292.259 129.680,293.052 130.400,293.162 130.400 C 293.272 130.400,292.659 129.680,291.800 128.800 C 290.941 127.920,290.148 127.200,290.038 127.200 C 289.928 127.200,290.541 127.920,291.400 128.800 M205.793 140.900 L 201.400 145.400 205.900 141.007 C 210.080 136.926,210.582 136.400,210.293 136.400 C 210.234 136.400,208.209 138.425,205.793 140.900 M199.381 147.300 L 197.800 149.000 199.500 147.419 C 201.081 145.948,201.384 145.600,201.081 145.600 C 201.016 145.600,200.251 146.365,199.381 147.300 M105.693 150.800 C 105.693 151.570,105.775 151.885,105.876 151.500 C 105.976 151.115,105.976 150.485,105.876 150.100 C 105.775 149.715,105.693 150.030,105.693 150.800 M126.093 150.800 C 126.093 151.570,126.175 151.885,126.276 151.500 C 126.376 151.115,126.376 150.485,126.276 150.100 C 126.175 149.715,126.093 150.030,126.093 150.800 M125.720 155.200 C 125.720 156.410,125.795 156.905,125.887 156.300 C 125.978 155.695,125.978 154.705,125.887 154.100 C 125.795 153.495,125.720 153.990,125.720 155.200 M105.366 161.200 C 105.366 165.270,105.425 166.935,105.498 164.900 C 105.571 162.865,105.571 159.535,105.498 157.500 C 105.425 155.465,105.366 157.130,105.366 161.200 M125.709 165.600 C 125.709 166.590,125.787 166.995,125.882 166.500 C 125.978 166.005,125.978 165.195,125.882 164.700 C 125.787 164.205,125.709 164.610,125.709 165.600 M201.200 185.400 C 200.228 186.390,199.523 187.200,199.633 187.200 C 199.743 187.200,200.628 186.390,201.600 185.400 C 202.572 184.410,203.277 183.600,203.167 183.600 C 203.057 183.600,202.172 184.410,201.200 185.400 M139.300 189.094 C 140.345 189.176,142.055 189.176,143.100 189.094 C 144.145 189.012,143.290 188.944,141.200 188.944 C 139.110 188.944,138.255 189.012,139.300 189.094 M274.778 211.500 L 273.400 213.000 274.900 211.622 C 276.296 210.338,276.584 210.000,276.278 210.000 C 276.212 210.000,275.537 210.675,274.778 211.500 M221.389 221.300 L 218.600 224.200 221.500 221.411 C 224.194 218.820,224.583 218.400,224.289 218.400 C 224.228 218.400,222.923 219.705,221.389 221.300 M136.000 233.000 C 138.081 235.090,139.874 236.800,139.984 236.800 C 140.094 236.800,138.481 235.090,136.400 233.000 C 134.319 230.910,132.526 229.200,132.416 229.200 C 132.306 229.200,133.919 230.910,136.000 233.000 M200.100 243.494 C 201.145 243.576,202.855 243.576,203.900 243.494 C 204.945 243.412,204.090 243.344,202.000 243.344 C 199.910 243.344,199.055 243.412,200.100 243.494 M201.500 260.693 C 202.435 260.777,203.965 260.777,204.900 260.693 C 205.835 260.609,205.070 260.540,203.200 260.540 C 201.330 260.540,200.565 260.609,201.500 260.693 M86.105 278.687 C 86.714 278.779,87.614 278.777,88.105 278.682 C 88.597 278.587,88.100 278.511,87.000 278.514 C 85.900 278.517,85.497 278.595,86.105 278.687 M111.379 292.000 C 111.379 299.150,111.433 302.075,111.499 298.500 C 111.566 294.925,111.566 289.075,111.499 285.500 C 111.433 281.925,111.379 284.850,111.379 292.000 M118.578 291.800 C 118.578 298.620,118.632 301.466,118.699 298.125 C 118.766 294.784,118.766 289.204,118.699 285.725 C 118.633 282.246,118.578 284.980,118.578 291.800 M78.901 290.200 C 78.905 291.080,78.987 291.393,79.083 290.895 C 79.179 290.398,79.175 289.678,79.075 289.295 C 78.975 288.913,78.896 289.320,78.901 290.200 M305.199 303.700 C 305.200 303.865,308.215 303.966,311.900 303.924 C 318.688 303.848,317.891 303.696,309.699 303.505 C 307.224 303.447,305.199 303.535,305.199 303.700 M216.700 303.898 C 218.515 303.972,221.485 303.972,223.300 303.898 C 225.115 303.823,223.630 303.763,220.000 303.763 C 216.370 303.763,214.885 303.823,216.700 303.898 M276.509 306.000 C 276.509 306.990,276.587 307.395,276.682 306.900 C 276.778 306.405,276.778 305.595,276.682 305.100 C 276.587 304.605,276.509 305.010,276.509 306.000 " stroke="none" fill="#93c7d1" fill-rule="evenodd"></path><path id="path3" d="M209.413 68.625 C 198.472 70.114,188.216 73.319,178.222 78.373 C 174.495 80.258,171.371 82.035,171.282 82.321 C 171.192 82.608,171.994 82.304,173.063 81.646 C 186.292 73.506,202.631 68.963,220.600 68.427 L 230.200 68.141 221.800 68.112 C 216.782 68.094,211.795 68.301,209.413 68.625 M231.505 68.683 C 232.002 68.779,232.722 68.775,233.105 68.675 C 233.487 68.575,233.080 68.496,232.200 68.501 C 231.320 68.505,231.007 68.587,231.505 68.683 M160.700 71.625 C 158.995 72.497,157.600 73.300,157.600 73.409 C 157.600 73.588,163.960 70.528,164.367 70.154 C 164.933 69.632,163.379 70.255,160.700 71.625 M152.000 76.633 C 141.479 83.215,131.347 92.662,124.688 102.096 C 123.320 104.035,122.290 105.699,122.400 105.793 C 122.510 105.888,122.240 106.238,121.800 106.570 C 121.360 106.903,121.169 107.180,121.376 107.187 C 121.584 107.194,121.404 107.464,120.976 107.787 C 120.549 108.110,120.369 108.380,120.576 108.387 C 120.784 108.394,120.604 108.683,120.176 109.030 C 119.749 109.376,119.670 109.543,120.000 109.400 C 120.473 109.195,120.465 109.252,119.960 109.670 C 119.317 110.203,119.200 110.442,119.200 111.224 C 119.200 111.457,119.022 111.537,118.805 111.403 C 118.570 111.258,118.516 111.437,118.673 111.845 C 118.854 112.317,118.787 112.439,118.458 112.236 C 118.195 112.073,118.020 112.089,118.069 112.270 C 118.241 112.905,117.539 114.409,117.176 114.185 C 116.974 114.060,116.927 114.267,117.073 114.645 C 117.250 115.107,117.185 115.238,116.873 115.045 C 116.560 114.852,116.495 114.982,116.673 115.445 C 116.850 115.907,116.785 116.038,116.473 115.845 C 116.160 115.652,116.095 115.782,116.273 116.245 C 116.450 116.707,116.385 116.838,116.073 116.645 C 115.760 116.452,115.695 116.582,115.873 117.045 C 116.050 117.507,115.985 117.638,115.673 117.445 C 115.360 117.252,115.295 117.382,115.473 117.845 C 115.618 118.225,115.572 118.430,115.368 118.304 C 115.166 118.179,114.976 118.464,114.947 118.938 C 114.918 119.412,114.415 121.043,113.831 122.562 C 113.081 124.511,112.948 125.175,113.379 124.817 C 113.882 124.400,114.035 124.426,114.243 124.967 C 114.414 125.412,114.769 125.547,115.347 125.386 C 116.030 125.195,116.080 125.233,115.600 125.574 C 115.191 125.864,115.138 126.095,115.434 126.300 C 115.673 126.465,116.080 126.960,116.340 127.400 C 116.760 128.114,116.790 128.071,116.613 127.000 L 116.415 125.800 116.865 127.100 C 117.113 127.815,117.480 128.400,117.681 128.400 C 117.883 128.400,117.944 128.232,117.817 128.028 C 117.691 127.823,117.798 127.525,118.055 127.366 C 118.348 127.185,118.416 127.250,118.238 127.538 C 118.081 127.792,118.105 128.000,118.291 128.000 C 118.477 128.000,118.656 128.350,118.688 128.777 C 118.728 129.300,118.559 129.482,118.173 129.334 C 117.353 129.020,117.452 130.190,118.300 130.832 C 118.896 131.282,118.925 131.278,118.500 130.801 C 117.919 130.150,117.828 129.447,118.368 129.780 C 118.570 129.905,119.007 129.736,119.339 129.404 C 120.165 128.578,120.365 128.646,120.100 129.663 C 119.943 130.263,120.018 130.436,120.347 130.233 C 120.607 130.072,120.794 130.089,120.763 130.270 C 120.597 131.225,120.848 132.418,121.172 132.217 C 121.377 132.091,121.647 132.153,121.773 132.356 C 121.898 132.559,122.406 132.636,122.900 132.528 C 123.623 132.369,123.682 132.415,123.200 132.759 C 122.667 133.140,122.667 133.189,123.200 133.200 C 123.733 133.211,123.733 133.255,123.200 133.600 C 122.699 133.924,122.732 133.999,123.400 134.055 C 123.840 134.092,124.380 134.164,124.600 134.215 C 124.820 134.266,125.180 134.331,125.400 134.360 C 125.620 134.389,125.530 134.589,125.200 134.806 C 124.701 135.134,124.692 135.259,125.145 135.552 C 125.606 135.848,125.606 135.937,125.145 136.120 C 124.845 136.239,125.095 136.351,125.700 136.368 C 126.305 136.386,126.800 136.599,126.800 136.843 C 126.800 137.095,126.508 137.173,126.122 137.026 C 125.539 136.802,125.549 136.881,126.201 137.601 L 126.956 138.436 127.538 136.611 C 128.455 133.740,128.486 134.746,127.591 138.340 C 126.348 143.336,125.968 145.668,126.251 146.561 C 126.420 147.094,126.826 145.835,127.430 142.904 C 130.262 129.162,138.756 112.241,147.684 102.555 C 148.582 101.581,149.223 100.689,149.108 100.574 C 148.530 99.997,141.304 109.400,138.098 114.900 C 136.009 118.485,135.302 119.118,137.204 115.700 C 140.771 109.291,145.880 102.421,152.800 94.731 C 155.385 91.858,155.389 91.849,153.545 93.221 C 152.525 93.979,151.769 94.733,151.866 94.895 C 151.962 95.058,151.747 95.078,151.387 94.940 C 150.998 94.790,150.900 94.586,151.145 94.434 C 151.646 94.125,151.277 93.502,150.200 92.838 C 149.428 92.362,149.432 92.352,150.300 92.535 C 151.541 92.797,151.429 92.159,150.100 91.387 C 149.495 91.036,149.271 90.828,149.602 90.924 C 149.933 91.021,150.467 90.818,150.789 90.474 C 151.306 89.920,151.294 89.878,150.687 90.111 C 150.080 90.344,149.959 90.214,150.014 89.386 C 150.022 89.268,149.742 88.885,149.391 88.534 C 149.041 88.184,148.852 87.641,148.972 87.328 C 149.093 87.013,149.014 86.868,148.796 87.002 C 148.579 87.137,148.001 86.966,147.512 86.623 C 147.022 86.280,146.842 86.000,147.111 86.000 C 147.380 86.000,147.600 85.795,147.600 85.544 C 147.600 85.293,147.915 84.833,148.300 84.522 C 148.932 84.011,148.912 83.998,148.100 84.392 C 147.605 84.632,147.200 84.986,147.200 85.179 C 147.200 85.473,146.349 85.475,145.600 85.183 C 145.490 85.140,145.265 85.127,145.100 85.153 C 144.935 85.179,144.800 85.020,144.800 84.800 C 144.800 84.580,144.991 84.400,145.224 84.400 C 145.457 84.400,145.534 84.217,145.396 83.993 C 145.258 83.770,144.998 83.678,144.818 83.789 C 144.638 83.900,144.245 83.689,143.945 83.321 C 143.472 82.738,143.488 82.683,144.071 82.901 C 144.732 83.149,145.800 82.334,145.374 81.907 C 145.125 81.658,150.139 78.089,153.900 75.838 C 156.017 74.571,156.775 73.991,156.300 74.002 C 156.245 74.004,154.310 75.187,152.000 76.633 M169.777 82.967 C 169.350 83.279,169.136 83.669,169.301 83.834 C 169.465 83.999,169.600 83.923,169.600 83.667 C 169.600 83.410,169.870 83.200,170.200 83.200 C 170.530 83.200,170.800 83.020,170.800 82.800 C 170.800 82.276,170.700 82.293,169.777 82.967 M161.799 88.493 C 157.853 91.456,149.000 99.552,149.669 99.586 C 149.817 99.594,151.797 97.873,154.069 95.762 C 156.341 93.650,160.000 90.566,162.200 88.908 C 165.658 86.301,166.883 85.200,166.326 85.200 C 166.248 85.200,164.211 86.682,161.799 88.493 M259.700 116.676 C 260.085 116.776,260.715 116.776,261.100 116.676 C 261.485 116.575,261.170 116.493,260.400 116.493 C 259.630 116.493,259.315 116.575,259.700 116.676 M263.700 117.076 C 264.085 117.176,264.715 117.176,265.100 117.076 C 265.485 116.975,265.170 116.893,264.400 116.893 C 263.630 116.893,263.315 116.975,263.700 117.076 M272.000 118.754 C 277.456 120.340,282.417 122.696,282.083 123.542 C 281.849 124.136,281.810 124.132,281.682 123.500 C 281.604 123.109,281.182 122.800,280.728 122.800 C 280.150 122.800,279.985 122.984,280.157 123.433 C 280.291 123.781,280.413 124.276,280.428 124.533 C 280.444 124.790,280.611 124.640,280.800 124.200 C 281.082 123.543,281.149 123.521,281.172 124.080 C 281.187 124.454,281.515 124.961,281.900 125.206 C 282.461 125.564,282.292 125.611,281.050 125.443 C 278.834 125.144,279.464 125.522,283.372 126.835 C 287.581 128.249,291.712 130.296,291.395 130.809 C 291.259 131.028,291.450 131.079,291.845 130.927 C 292.291 130.756,292.436 130.818,292.259 131.104 C 292.109 131.347,292.174 131.661,292.403 131.802 C 292.632 131.944,292.794 131.911,292.763 131.730 C 292.619 130.902,292.854 130.743,293.500 131.231 C 293.885 131.522,293.390 130.895,292.400 129.837 C 287.352 124.446,273.843 117.439,268.855 117.624 C 268.495 117.638,269.910 118.146,272.000 118.754 M135.223 120.055 C 134.772 120.795,134.402 121.248,134.401 121.062 C 134.399 120.596,135.724 118.391,135.901 118.567 C 135.979 118.646,135.674 119.315,135.223 120.055 M270.512 126.295 C 271.564 126.377,273.184 126.376,274.112 126.292 C 275.040 126.208,274.180 126.141,272.200 126.142 C 270.220 126.143,269.460 126.212,270.512 126.295 M213.400 134.047 C 208.853 137.998,199.100 147.768,193.481 154.000 C 190.606 157.190,185.363 162.770,181.832 166.400 L 175.410 173.000 181.005 167.600 L 186.600 162.201 180.205 168.700 C 176.687 172.275,173.641 175.200,173.435 175.200 C 173.229 175.200,173.497 174.705,174.030 174.100 L 175.000 173.000 173.902 173.968 C 173.297 174.501,172.894 175.027,173.005 175.139 C 173.269 175.402,171.579 177.200,171.068 177.200 C 170.853 177.200,171.019 176.795,171.438 176.300 L 172.200 175.400 171.313 176.150 C 170.650 176.711,170.519 177.075,170.796 177.593 C 171.076 178.116,170.926 178.494,170.183 179.140 C 169.642 179.610,169.200 179.810,169.200 179.585 C 169.200 179.359,169.470 179.071,169.800 178.945 C 170.130 178.818,170.400 178.545,170.400 178.339 C 170.400 178.132,169.977 178.281,169.461 178.671 C 168.389 179.480,168.462 181.014,169.553 180.599 C 169.969 180.441,170.057 180.488,169.800 180.731 C 169.124 181.371,167.600 181.698,167.600 181.203 C 167.600 180.956,167.780 180.864,168.000 181.000 C 168.220 181.136,168.400 180.877,168.400 180.424 C 168.400 179.454,167.790 179.328,167.446 180.225 C 167.309 180.581,167.002 180.725,166.735 180.560 C 166.413 180.361,166.349 180.489,166.532 180.967 C 166.679 181.351,166.800 181.841,166.800 182.056 C 166.800 182.271,166.980 182.336,167.200 182.200 C 167.420 182.064,167.600 182.223,167.600 182.553 C 167.600 182.883,167.792 183.271,168.027 183.417 C 168.282 183.574,168.402 183.389,168.327 182.956 C 168.171 182.064,170.255 180.895,170.882 181.522 C 171.153 181.793,171.107 181.917,170.743 181.900 C 169.431 181.838,168.771 182.030,169.004 182.407 C 169.142 182.630,169.451 182.692,169.689 182.545 C 169.951 182.383,170.008 182.463,169.834 182.745 C 169.675 183.002,169.396 183.121,169.214 183.009 C 169.033 182.896,168.773 183.092,168.639 183.444 C 168.499 183.808,168.137 183.985,167.797 183.854 C 167.428 183.713,167.200 183.859,167.200 184.236 C 167.200 184.596,167.390 184.730,167.662 184.562 C 167.948 184.385,168.015 184.452,167.838 184.738 C 167.681 184.992,167.724 185.200,167.934 185.200 C 168.143 185.200,168.408 184.955,168.523 184.656 C 168.763 184.030,170.400 183.491,170.400 184.037 C 170.400 184.237,170.114 184.400,169.764 184.400 C 169.035 184.400,167.574 186.035,167.873 186.517 C 167.982 186.694,168.309 186.641,168.600 186.400 C 168.966 186.096,169.209 186.090,169.388 186.381 C 169.648 186.801,169.421 186.876,167.641 186.957 C 167.026 186.984,166.641 187.272,166.568 187.760 C 166.447 188.561,165.631 189.266,165.160 188.975 C 165.007 188.881,164.913 189.454,164.950 190.249 C 164.989 191.069,164.809 191.775,164.534 191.881 C 164.268 191.983,164.149 192.323,164.270 192.638 C 164.429 193.052,164.294 193.134,163.779 192.937 C 163.292 192.750,163.160 192.811,163.358 193.132 C 163.773 193.804,164.700 193.708,165.124 192.950 C 165.427 192.408,165.534 192.483,165.763 193.395 C 166.029 194.453,166.064 194.466,166.819 193.783 C 168.057 192.663,167.726 193.443,166.379 194.821 C 165.677 195.540,164.913 195.975,164.579 195.847 C 164.213 195.707,163.998 195.878,163.994 196.313 C 163.989 196.855,163.915 196.885,163.641 196.453 C 163.362 196.013,163.121 196.079,162.410 196.790 C 161.816 197.384,161.243 197.598,160.663 197.442 C 160.188 197.315,159.555 197.208,159.257 197.205 C 158.877 197.202,158.789 196.898,158.964 196.200 C 159.116 195.597,159.044 195.200,158.784 195.200 C 158.547 195.200,158.464 195.380,158.600 195.600 C 158.736 195.820,158.637 196.000,158.381 196.000 C 158.124 196.000,158.014 196.258,158.135 196.574 C 158.256 196.890,158.140 197.224,157.878 197.316 C 157.615 197.407,158.390 197.629,159.600 197.808 C 161.389 198.072,161.613 198.183,160.800 198.404 C 160.250 198.553,159.495 198.522,159.123 198.335 C 158.590 198.069,158.476 198.157,158.590 198.748 C 158.699 199.314,158.499 199.500,157.780 199.500 C 156.934 199.500,156.876 199.404,157.271 198.650 L 157.716 197.800 156.822 198.595 C 156.330 199.032,155.719 199.409,155.464 199.434 C 153.750 199.598,153.765 199.590,154.400 200.005 C 154.730 200.222,155.461 200.302,156.024 200.184 C 156.588 200.066,157.488 200.145,158.024 200.360 C 159.652 201.010,155.509 200.897,151.800 200.190 C 137.454 197.456,123.949 189.646,115.987 179.479 C 114.476 177.549,115.523 177.759,117.709 179.823 C 119.254 181.282,119.130 181.099,117.234 179.121 C 115.822 177.649,114.472 176.479,114.234 176.522 C 113.995 176.565,113.824 176.292,113.853 175.916 C 113.882 175.539,113.726 175.269,113.506 175.316 C 113.286 175.362,113.057 175.113,112.998 174.763 C 112.938 174.412,112.446 173.422,111.903 172.563 C 110.154 169.790,109.228 167.717,108.225 164.323 C 107.685 162.496,107.233 161.333,107.221 161.741 C 107.188 162.884,109.430 169.286,110.844 172.089 C 119.639 189.516,140.668 202.000,161.231 202.000 C 166.511 202.000,175.676 200.746,175.934 199.988 C 176.008 199.772,176.241 199.702,176.452 199.832 C 176.663 199.962,177.097 199.851,177.418 199.585 C 177.738 199.320,178.000 199.236,178.000 199.400 C 178.000 199.564,178.270 199.474,178.600 199.200 C 178.930 198.926,179.200 198.836,179.200 199.000 C 179.200 199.164,179.442 199.097,179.737 198.852 C 180.032 198.607,180.392 198.525,180.537 198.670 C 180.682 198.815,180.800 198.704,180.800 198.424 C 180.800 198.135,181.060 198.014,181.400 198.145 C 181.730 198.271,182.000 198.190,182.000 197.964 C 182.000 197.738,182.180 197.664,182.400 197.800 C 182.620 197.936,182.800 197.837,182.800 197.581 C 182.800 197.324,183.070 197.218,183.400 197.345 C 183.730 197.471,184.000 197.390,184.000 197.164 C 184.000 196.938,184.180 196.864,184.400 197.000 C 184.620 197.136,184.800 197.046,184.800 196.800 C 184.800 196.554,184.980 196.464,185.200 196.600 C 185.420 196.736,185.600 196.646,185.600 196.400 C 185.600 196.154,185.780 196.064,186.000 196.200 C 186.220 196.336,186.400 196.246,186.400 196.000 C 186.400 195.754,186.580 195.664,186.800 195.800 C 187.020 195.936,187.200 195.846,187.200 195.600 C 187.200 195.354,187.380 195.264,187.600 195.400 C 187.820 195.536,188.000 195.446,188.000 195.200 C 188.000 194.954,188.153 194.847,188.340 194.963 C 189.224 195.509,196.656 190.235,200.400 186.404 C 201.830 184.941,202.372 184.476,201.605 185.372 C 200.837 186.267,201.677 185.580,203.470 183.843 C 205.264 182.107,206.651 180.476,206.552 180.218 C 206.453 179.960,206.783 179.401,207.286 178.975 L 208.200 178.200 207.403 179.200 L 206.606 180.200 207.703 179.230 C 208.798 178.262,209.157 177.732,208.400 178.200 C 207.627 178.678,208.010 177.715,208.893 176.962 C 209.777 176.208,209.780 176.208,209.200 177.000 C 208.620 177.792,208.623 177.792,209.507 177.038 C 210.408 176.269,210.719 175.755,210.024 176.185 C 209.818 176.313,209.675 176.071,209.706 175.647 C 209.745 175.140,210.006 174.924,210.474 175.014 C 210.864 175.089,211.305 174.954,211.453 174.714 C 211.606 174.467,211.540 174.390,211.304 174.536 C 211.073 174.679,210.783 174.532,210.659 174.211 C 210.536 173.889,210.635 173.502,210.879 173.351 C 211.167 173.173,211.210 173.261,211.000 173.600 C 210.784 173.949,210.833 174.027,211.145 173.834 C 211.402 173.675,211.502 173.366,211.367 173.147 C 211.232 172.928,211.381 172.446,211.699 172.075 C 212.017 171.704,214.926 167.466,218.164 162.658 C 221.402 157.851,224.948 152.776,226.044 151.382 C 227.664 149.321,227.888 148.858,227.246 148.907 C 226.811 148.939,226.544 149.109,226.651 149.283 C 226.759 149.457,226.567 149.600,226.224 149.600 C 225.881 149.600,225.600 149.420,225.600 149.200 C 225.600 148.980,225.409 148.800,225.176 148.800 C 224.943 148.800,224.864 148.980,225.000 149.200 C 225.315 149.709,224.780 149.706,224.000 149.194 C 223.467 148.844,223.467 148.756,224.000 148.406 C 224.492 148.083,224.446 148.011,223.744 148.006 C 223.274 148.003,222.914 147.775,222.944 147.500 C 222.975 147.225,222.820 147.000,222.600 147.000 C 222.380 147.000,222.239 147.118,222.287 147.262 C 222.335 147.406,222.101 147.629,221.767 147.757 C 221.418 147.891,221.264 147.821,221.405 147.592 C 222.006 146.620,221.194 145.622,220.131 146.026 C 219.175 146.390,219.117 146.346,219.296 145.408 C 219.402 144.854,219.334 144.400,219.145 144.400 C 218.955 144.400,218.797 144.715,218.794 145.100 C 218.789 145.687,218.728 145.705,218.415 145.211 C 218.096 144.707,218.005 144.721,217.779 145.311 C 217.456 146.151,216.933 146.217,216.933 145.418 C 216.933 145.097,217.064 144.916,217.225 145.015 C 217.385 145.114,217.624 144.913,217.757 144.569 C 217.927 144.124,217.795 143.983,217.299 144.082 C 216.855 144.172,216.445 143.859,216.176 143.225 C 215.806 142.354,215.717 142.317,215.481 142.934 C 215.318 143.358,215.367 143.544,215.605 143.397 C 215.822 143.263,216.000 143.333,216.000 143.553 C 216.000 143.773,215.800 144.076,215.555 144.228 C 215.035 144.549,214.343 143.615,214.688 143.057 C 214.818 142.848,214.731 142.795,214.496 142.940 C 214.258 143.088,213.842 142.691,213.556 142.045 C 213.077 140.964,212.982 140.924,212.166 141.459 C 211.396 141.964,211.212 141.955,210.648 141.391 C 210.295 141.038,209.825 140.861,209.603 140.998 C 208.935 141.411,208.227 140.762,208.857 140.315 C 209.243 140.042,209.111 139.991,208.400 140.139 C 207.667 140.292,208.613 139.180,211.946 135.974 C 214.447 133.568,216.427 131.603,216.346 131.607 C 216.266 131.611,214.940 132.709,213.400 134.047 M293.200 132.221 C 293.200 132.304,293.581 132.576,294.046 132.825 C 294.705 133.177,294.855 133.166,294.725 132.774 C 294.577 132.331,293.200 131.832,293.200 132.221 M260.800 143.000 C 259.828 143.990,259.123 144.800,259.233 144.800 C 259.343 144.800,260.228 143.990,261.200 143.000 C 262.172 142.010,262.877 141.200,262.767 141.200 C 262.657 141.200,261.772 142.010,260.800 143.000 M125.902 148.600 C 126.007 149.150,126.162 149.600,126.247 149.600 C 126.331 149.600,126.400 149.150,126.400 148.600 C 126.400 148.050,126.245 147.600,126.055 147.600 C 125.866 147.600,125.797 148.050,125.902 148.600 M125.693 152.000 C 125.693 152.770,125.775 153.085,125.876 152.700 C 125.976 152.315,125.976 151.685,125.876 151.300 C 125.775 150.915,125.693 151.230,125.693 152.000 M125.357 159.600 C 125.357 162.570,125.420 163.785,125.497 162.300 C 125.574 160.815,125.574 158.385,125.497 156.900 C 125.420 155.415,125.357 156.630,125.357 159.600 M106.509 156.800 C 106.509 157.790,106.587 158.195,106.682 157.700 C 106.778 157.205,106.778 156.395,106.682 155.900 C 106.587 155.405,106.509 155.810,106.509 156.800 M206.400 180.522 C 206.400 180.588,205.725 181.263,204.900 182.022 L 203.400 183.400 204.778 181.900 C 206.062 180.504,206.400 180.216,206.400 180.522 M165.091 181.443 C 164.961 181.572,164.959 181.976,165.086 182.339 C 165.266 182.852,165.206 182.896,164.817 182.538 C 164.435 182.186,163.995 182.266,162.958 182.878 C 161.330 183.838,161.346 183.785,162.662 183.862 C 163.333 183.900,163.534 183.806,163.208 183.605 C 162.836 183.375,162.944 183.208,163.597 183.001 C 164.114 182.837,164.611 182.894,164.760 183.136 C 164.927 183.406,165.233 183.424,165.611 183.185 C 165.935 182.980,166.020 182.807,165.800 182.800 C 165.580 182.793,165.634 182.640,165.919 182.459 C 166.340 182.192,166.333 182.042,165.882 181.668 C 165.576 181.414,165.220 181.313,165.091 181.443 M120.144 181.909 C 120.460 182.421,122.800 184.153,122.800 183.875 C 122.800 183.776,122.139 183.191,121.332 182.575 C 120.524 181.959,119.989 181.659,120.144 181.909 M166.200 183.361 C 165.191 184.572,164.782 185.600,165.309 185.600 C 165.593 185.600,166.041 185.027,166.305 184.326 C 166.837 182.919,166.805 182.634,166.200 183.361 M166.265 185.274 C 165.961 186.437,166.267 186.704,167.030 185.942 C 167.557 185.414,167.562 185.267,167.069 184.857 C 166.608 184.474,166.453 184.555,166.265 185.274 M124.400 184.997 C 124.400 185.268,127.649 186.884,127.830 186.703 C 127.914 186.619,127.176 186.159,126.191 185.681 C 125.206 185.202,124.400 184.894,124.400 184.997 M158.000 185.600 C 157.230 186.022,156.744 186.374,156.920 186.383 C 157.344 186.405,159.600 185.232,159.600 184.990 C 159.600 184.728,159.577 184.737,158.000 185.600 M163.600 185.647 C 163.600 185.896,163.247 186.001,162.800 185.884 C 162.361 185.769,161.911 185.820,161.801 185.998 C 161.692 186.175,162.142 186.283,162.801 186.237 C 163.460 186.192,164.000 186.285,164.000 186.444 C 164.000 187.159,163.483 187.975,163.158 187.774 C 162.961 187.652,162.800 187.743,162.800 187.976 C 162.800 188.642,163.518 188.472,163.968 187.700 C 164.300 187.130,164.378 187.114,164.388 187.615 C 164.395 187.953,164.775 188.258,165.234 188.293 C 165.811 188.336,166.000 188.177,165.847 187.778 C 165.725 187.460,165.821 187.200,166.062 187.200 C 166.351 187.200,166.331 186.999,166.004 186.604 C 165.458 185.947,164.627 186.197,165.055 186.889 C 165.215 187.149,165.137 187.209,164.862 187.038 C 164.608 186.881,164.400 186.403,164.400 185.976 C 164.400 185.549,164.220 185.200,164.000 185.200 C 163.780 185.200,163.600 185.401,163.600 185.647 M129.600 187.533 C 129.930 187.736,130.650 188.024,131.200 188.171 C 131.895 188.357,132.017 188.325,131.600 188.067 C 131.270 187.864,130.550 187.576,130.000 187.429 C 129.305 187.243,129.183 187.275,129.600 187.533 M168.100 188.674 C 167.825 188.780,167.597 189.167,167.594 189.533 C 167.589 190.110,167.535 190.119,167.200 189.600 C 166.914 189.157,166.811 189.138,166.806 189.529 C 166.803 189.819,166.530 190.327,166.200 190.657 C 165.420 191.437,165.436 191.001,166.238 189.644 C 166.595 189.039,167.254 188.546,167.738 188.523 C 168.212 188.500,168.375 188.568,168.100 188.674 M163.844 190.200 C 164.173 191.671,164.402 191.990,164.394 190.967 C 164.391 190.545,164.205 189.930,163.982 189.600 C 163.685 189.162,163.648 189.324,163.844 190.200 M162.000 192.333 C 162.000 192.737,161.722 193.067,161.383 193.067 C 160.985 193.067,160.851 192.842,161.006 192.433 C 161.190 191.951,161.136 191.911,160.779 192.265 C 160.135 192.904,160.654 193.600,161.774 193.600 C 162.495 193.600,162.700 193.379,162.700 192.600 C 162.700 192.050,162.543 191.600,162.350 191.600 C 162.158 191.600,162.000 191.930,162.000 192.333 M164.667 193.867 C 164.124 194.410,164.387 195.580,165.000 195.345 C 165.330 195.218,165.600 194.774,165.600 194.357 C 165.600 193.597,165.165 193.369,164.667 193.867 M162.630 194.667 C 162.435 195.175,162.263 195.223,161.907 194.867 C 161.650 194.610,161.256 194.400,161.031 194.400 C 160.806 194.400,161.035 194.690,161.541 195.044 C 162.401 195.646,162.509 195.634,163.245 194.844 C 163.835 194.211,163.888 194.000,163.458 194.000 C 163.143 194.000,162.770 194.300,162.630 194.667 M168.768 195.324 C 168.746 195.665,168.679 195.657,168.534 195.298 C 168.423 195.021,168.158 194.902,167.946 195.033 C 167.709 195.180,167.741 195.488,168.030 195.836 C 168.366 196.241,168.372 196.400,168.049 196.400 C 167.802 196.400,167.600 196.209,167.600 195.976 C 167.600 195.743,167.375 195.684,167.100 195.845 C 166.825 196.006,166.939 195.751,167.353 195.278 C 168.111 194.414,168.827 194.437,168.768 195.324 M161.362 195.938 C 161.519 196.192,161.457 196.400,161.224 196.400 C 160.991 196.400,160.800 196.580,160.800 196.800 C 160.800 197.412,161.485 197.276,161.740 196.613 C 161.864 196.290,161.765 195.902,161.521 195.751 C 161.252 195.585,161.189 195.659,161.362 195.938 M155.783 197.627 C 155.638 197.862,155.276 197.961,154.980 197.848 C 154.628 197.713,154.520 197.848,154.670 198.238 C 154.874 198.771,156.400 197.977,156.400 197.338 C 156.400 197.048,156.036 197.218,155.783 197.627 M179.600 197.564 C 179.270 197.750,178.550 198.013,178.000 198.148 C 177.166 198.351,177.200 198.296,178.200 197.814 C 179.482 197.197,180.603 196.996,179.600 197.564 M166.000 198.200 C 165.726 198.530,165.299 198.786,165.051 198.768 C 164.770 198.749,164.789 198.660,165.102 198.534 C 165.379 198.423,165.503 198.167,165.379 197.966 C 165.255 197.765,165.455 197.600,165.825 197.600 C 166.378 197.600,166.409 197.707,166.000 198.200 M163.200 199.698 C 163.200 199.921,162.935 199.878,162.600 199.600 C 162.270 199.326,162.000 198.922,162.000 198.702 C 162.000 198.479,162.265 198.522,162.600 198.800 C 162.930 199.074,163.200 199.478,163.200 199.698 M161.438 199.262 C 161.607 199.535,161.549 199.616,161.296 199.459 C 161.061 199.314,160.788 199.421,160.689 199.698 C 160.590 199.974,160.377 200.077,160.215 199.927 C 159.869 199.606,160.288 198.800,160.800 198.800 C 160.994 198.800,161.281 199.008,161.438 199.262 M169.200 199.800 C 169.629 200.317,169.484 200.392,168.149 200.340 C 166.933 200.293,166.838 200.244,167.707 200.113 C 168.316 200.021,168.710 199.778,168.583 199.573 C 168.217 198.980,168.653 199.141,169.200 199.800 M172.800 199.600 C 172.250 199.776,171.350 199.917,170.800 199.913 C 169.902 199.906,169.922 199.874,171.000 199.600 C 172.692 199.169,174.144 199.169,172.800 199.600 M161.100 200.676 C 160.715 200.776,160.085 200.776,159.700 200.676 C 159.315 200.575,159.630 200.493,160.400 200.493 C 161.170 200.493,161.485 200.575,161.100 200.676 M165.507 200.686 C 164.906 200.777,163.826 200.779,163.107 200.690 C 162.388 200.601,162.880 200.526,164.200 200.524 C 165.520 200.522,166.108 200.595,165.507 200.686 M271.988 231.500 L 269.400 234.200 272.100 231.612 C 273.585 230.188,274.800 228.973,274.800 228.912 C 274.800 228.617,274.393 228.992,271.988 231.500 M180.652 240.716 C 180.544 240.890,181.073 240.961,181.828 240.873 C 182.583 240.785,183.200 240.642,183.200 240.556 C 183.200 240.255,180.845 240.403,180.652 240.716 M206.100 243.476 C 206.485 243.576,207.115 243.576,207.500 243.476 C 207.885 243.375,207.570 243.293,206.800 243.293 C 206.030 243.293,205.715 243.375,206.100 243.476 M192.100 259.876 C 192.485 259.976,193.115 259.976,193.500 259.876 C 193.885 259.775,193.570 259.693,192.800 259.693 C 192.030 259.693,191.715 259.775,192.100 259.876 M196.705 260.283 C 197.202 260.379,197.922 260.375,198.305 260.275 C 198.687 260.175,198.280 260.096,197.400 260.101 C 196.520 260.105,196.207 260.187,196.705 260.283 M208.300 260.282 C 208.795 260.378,209.605 260.378,210.100 260.282 C 210.595 260.187,210.190 260.109,209.200 260.109 C 208.210 260.109,207.805 260.187,208.300 260.282 M146.180 292.800 C 146.180 300.390,146.234 303.495,146.299 299.700 C 146.365 295.905,146.365 289.695,146.299 285.900 C 146.234 282.105,146.180 285.210,146.180 292.800 M191.386 299.600 C 191.386 310.930,191.437 315.565,191.500 309.900 C 191.562 304.235,191.562 294.965,191.500 289.300 C 191.437 283.635,191.386 288.270,191.386 299.600 M276.578 291.800 C 276.579 298.840,276.633 301.664,276.699 298.075 C 276.766 294.486,276.766 288.726,276.699 285.275 C 276.633 281.824,276.578 284.760,276.578 291.800 M139.380 293.000 C 139.380 300.480,139.434 303.483,139.499 299.674 C 139.565 295.865,139.565 289.745,139.499 286.074 C 139.433 282.403,139.379 285.520,139.380 293.000 M157.386 299.800 C 157.386 311.020,157.437 315.668,157.500 310.128 C 157.562 304.588,157.562 295.408,157.500 289.728 C 157.437 284.048,157.386 288.580,157.386 299.800 M74.975 282.900 L 73.800 284.200 75.100 283.025 C 76.312 281.930,76.584 281.600,76.275 281.600 C 76.206 281.600,75.621 282.185,74.975 282.900 M210.662 310.300 C 210.560 310.465,214.762 310.600,220.000 310.600 C 225.238 310.600,229.440 310.465,229.338 310.300 C 229.236 310.135,225.034 310.000,220.000 310.000 C 214.966 310.000,210.764 310.135,210.662 310.300 M305.800 310.278 C 313.722 310.564,321.109 310.574,320.939 310.300 C 320.837 310.135,316.668 310.037,311.676 310.081 C 306.684 310.126,304.040 310.215,305.800 310.278 M128.305 321.083 C 128.802 321.179,129.522 321.175,129.905 321.075 C 130.287 320.975,129.880 320.896,129.000 320.901 C 128.120 320.905,127.807 320.987,128.305 321.083 " stroke="none" fill="#71aebe" fill-rule="evenodd"></path></g></svg>